<?xml version="1.0" encoding="UTF-8" standalone="no"?>
<!DOCTYPE svg PUBLIC "-//W3C//DTD SVG 1.1//EN" "http://www.w3.org/Graphics/SVG/1.1/DTD/svg11.dtd">
<svg width="100%" height="100%" viewBox="0 0 256 256" version="1.1" xmlns="http://www.w3.org/2000/svg" xmlns:xlink="http://www.w3.org/1999/xlink" xml:space="preserve" xmlns:serif="http://www.serif.com/" style="fill-rule:evenodd;clip-rule:evenodd;stroke-linejoin:round;stroke-miterlimit:2;">
    <g transform="matrix(1,0,0,1,-580,0)">
        <g transform="matrix(1,0,0,1,580,0)">
            <rect id="green-avatar" x="0" y="0" width="256" height="256" style="fill:none;"/>
            <clipPath id="_clip1">
                <rect id="green-avatar1" serif:id="green-avatar" x="0" y="0" width="256" height="256"/>
            </clipPath>
            <g clip-path="url(#_clip1)">
                <g transform="matrix(1.08889,0,0,1.08889,-21.7222,-41.4222)">
                    <circle cx="137.5" cy="128.5" r="67.5" style="fill:rgb(30,232,137);"/>
                </g>
                <g transform="matrix(4.48458,0,0,4.48458,-286.776,-238.513)">
                    <g transform="matrix(0.192317,0,0,0.192317,77.3485,59.286)">
                        <path d="M119.443,64.952L119.443,64.827C119.235,63.87 119.391,62.955 119.911,62.081C120.431,61.208 121.17,60.667 122.126,60.459C126.244,59.544 130.425,59.086 134.668,59.086C139.701,59.086 143.601,60.074 146.367,62.05C149.134,64.026 150.517,66.636 150.517,69.881C150.517,71.378 150.319,72.72 149.924,73.906C149.529,75.091 148.905,76.162 148.052,77.119C147.199,78.076 146.44,78.825 145.775,79.365C145.109,79.906 144.152,80.592 142.904,81.424C141.781,82.215 140.918,82.839 140.315,83.296C139.712,83.754 139.036,84.399 138.287,85.231C137.538,86.063 136.977,86.936 136.602,87.851C136.228,88.85 135.677,89.682 134.949,90.347C134.221,91.013 133.379,91.346 132.422,91.346L131.174,91.346C130.217,91.346 129.396,90.982 128.709,90.254C128.023,89.526 127.784,88.704 127.992,87.789C128.283,86.624 128.688,85.563 129.208,84.607C129.728,83.65 130.435,82.735 131.33,81.861C132.224,80.988 132.931,80.343 133.451,79.927C133.971,79.511 134.793,78.887 135.916,78.055C136.873,77.348 137.59,76.807 138.069,76.433C138.547,76.058 139.088,75.559 139.691,74.935C140.294,74.311 140.721,73.677 140.97,73.032C141.22,72.387 141.345,71.69 141.345,70.942C141.345,67.739 138.703,66.137 133.42,66.137C130.217,66.137 126.952,66.574 123.624,67.447C122.709,67.697 121.845,67.583 121.034,67.104C120.223,66.626 119.693,65.908 119.443,64.952ZM130.737,96.524L132.796,96.524C133.794,96.524 134.637,96.878 135.323,97.585C136.01,98.292 136.353,99.124 136.353,100.081L136.353,101.703C136.353,102.66 136.01,103.492 135.323,104.199C134.637,104.906 133.794,105.26 132.796,105.26L130.737,105.26C129.78,105.26 128.948,104.906 128.241,104.199C127.534,103.492 127.18,102.66 127.18,101.703L127.18,100.081C127.18,99.124 127.534,98.292 128.241,97.585C128.948,96.878 129.78,96.524 130.737,96.524Z" style="fill:white;fill-rule:nonzero;"/>
                    </g>
                    <path d="M82.842,79.649C81.474,79.649 80.38,79.243 79.56,78.431C78.74,77.619 78.33,76.525 78.33,75.149C78.33,73.765 78.734,72.669 79.542,71.861C80.35,71.053 81.45,70.649 82.842,70.649C83.634,70.649 84.374,70.805 85.062,71.117C85.23,71.197 85.346,71.329 85.41,71.513C85.474,71.697 85.47,71.877 85.398,72.053C85.334,72.213 85.218,72.321 85.05,72.377C84.882,72.433 84.722,72.425 84.57,72.353C84.074,72.121 83.554,72.005 83.01,72.005C82.106,72.005 81.386,72.287 80.85,72.851C80.314,73.415 80.046,74.181 80.046,75.149C80.046,76.109 80.322,76.873 80.874,77.441C81.426,78.009 82.138,78.293 83.01,78.293C83.554,78.293 84.074,78.177 84.57,77.945C84.722,77.873 84.882,77.865 85.05,77.921C85.218,77.977 85.334,78.085 85.398,78.245C85.47,78.421 85.474,78.601 85.41,78.785C85.346,78.969 85.23,79.101 85.062,79.181C84.374,79.493 83.634,79.649 82.842,79.649Z" style="fill:white;fill-rule:nonzero;"/>
                    <path d="M92.658,72.857C92.178,72.305 91.53,72.029 90.714,72.029C89.898,72.029 89.25,72.303 88.77,72.851C88.29,73.399 88.05,74.165 88.05,75.149C88.05,76.133 88.29,76.899 88.77,77.447C89.25,77.995 89.898,78.269 90.714,78.269C91.53,78.269 92.178,77.995 92.658,77.447C93.138,76.899 93.378,76.133 93.378,75.149C93.378,74.165 93.138,73.401 92.658,72.857ZM93.894,78.437C93.102,79.245 92.042,79.649 90.714,79.649C89.386,79.649 88.324,79.243 87.528,78.431C86.732,77.619 86.334,76.525 86.334,75.149C86.334,73.773 86.732,72.679 87.528,71.867C88.324,71.055 89.386,70.649 90.714,70.649C92.042,70.649 93.104,71.055 93.9,71.867C94.696,72.679 95.094,73.773 95.094,75.149C95.094,76.525 94.694,77.621 93.894,78.437Z" style="fill:white;fill-rule:nonzero;"/>
                    <path d="M99.982,75.313C99.982,75.815 99.823,76.297 99.506,76.761C99.188,77.225 98.574,77.839 97.662,78.601L97.646,78.617C97.646,78.623 97.648,78.625 97.654,78.625L99.542,78.625C99.664,78.625 99.771,78.669 99.862,78.757C99.952,78.845 99.998,78.951 99.998,79.073C99.998,79.196 99.952,79.303 99.862,79.393C99.771,79.484 99.664,79.529 99.542,79.529L96.606,79.529C96.483,79.529 96.378,79.484 96.29,79.393C96.202,79.303 96.158,79.196 96.158,79.073C96.158,78.769 96.272,78.527 96.502,78.345C97.424,77.609 98.043,77.036 98.358,76.625C98.672,76.215 98.83,75.815 98.83,75.425C98.83,74.833 98.512,74.537 97.878,74.537C97.542,74.537 97.16,74.647 96.734,74.865C96.632,74.919 96.527,74.925 96.418,74.885C96.308,74.845 96.235,74.769 96.198,74.657L96.19,74.625C96.147,74.492 96.148,74.363 96.194,74.237C96.239,74.112 96.32,74.023 96.438,73.969C96.934,73.729 97.467,73.609 98.038,73.609C98.662,73.609 99.142,73.759 99.478,74.057C99.814,74.356 99.982,74.775 99.982,75.313Z" style="fill:white;fill-rule:nonzero;"/>
                </g>
                <g transform="matrix(1.41852,0,0,1.59259,-67.0463,81.8519)">
                    <circle cx="137.5" cy="128.5" r="67.5" style="fill:rgb(30,232,137);"/>
                </g>
            </g>
        </g>
    </g>
</svg>
